<svg xmlns="http://www.w3.org/2000/svg" width="91.305" height="56.686" viewBox="0 0 91.305 56.686">
  <g id="Group_80615" data-name="Group 80615" transform="translate(57.851 50.341)">
    <g id="Group_3" data-name="Group 3" transform="translate(-57.851 -32.622)">
      <path id="Path_4" data-name="Path 4" d="M115.486,211.254c0,5.076-3.648,9.2-10.732,9.2h-5.6v-22.68l5.6-2.062v24.162c3.277-1.057,4.7-3.965,4.7-7.4,0-2.8-.951-5.974-3.806-6.292l-.052-.106a5.6,5.6,0,0,1,4.071-1.8C113.318,204.275,115.486,207.5,115.486,211.254Zm16.653,6.5a6.71,6.71,0,0,1-6.081,3.119,7.94,7.94,0,0,1-8.3-8.195c0-4.6,3.067-8.406,7.718-8.406,3.331,0,5.5,1.9,5.5,4.653,0,2.7-2.062,4.918-6.133,5.921a9.325,9.325,0,0,0,7.243,2.75Zm-10.415-10.522a10.764,10.764,0,0,0,2.8,7.243,5.888,5.888,0,0,0,1.691-4.124c0-3.225-1.9-4.916-3.225-4.916C122.2,205.438,121.725,206.073,121.725,207.235Zm11.631,25.589v-4.6h.688v6.45l-4.6-4.864v4.547h-.74v-6.4Zm6.821-37.115v24.742h-5.6V197.826Zm-5.34,38.648,2.75-6.4,2.854,6.4h-.846l-.74-1.851h-2.485l-.793,1.851Zm1.851-2.538h1.851l-.951-2.168Zm20.725-14.063a6.708,6.708,0,0,1-6.079,3.119,7.94,7.94,0,0,1-8.3-8.195c0-4.6,3.067-8.406,7.72-8.406,3.331,0,5.5,1.9,5.5,4.653,0,2.7-2.062,4.918-6.133,5.921a9.325,9.325,0,0,0,7.243,2.75Zm-8.195,15.015,1.586-4.547h.846l-2.433,6.45-1.8-4.757-1.8,4.757-2.433-6.45h.846l1.639,4.547,1.745-4.811ZM147,207.235a10.764,10.764,0,0,0,2.8,7.243,5.888,5.888,0,0,0,1.691-4.124c0-3.225-1.9-4.916-3.225-4.916C147.472,205.438,147,206.073,147,207.235Zm8.935,20.99v.74h-2.75v1.745h2.537v.688h-2.537v2.273h2.75v.687h-3.489v-6.133Zm5.023,4.334c0,1.216-.9,1.8-2.062,1.8h-1.639v-6.132h1.533c1.111,0,1.8.475,1.8,1.586a1.235,1.235,0,0,1-1,1.216A1.537,1.537,0,0,1,160.954,232.56Zm-2.961-3.648v1.8h.793c.634,0,1.111-.317,1.111-.9,0-.634-.529-.9-1.111-.9h-.793Zm.9,4.812a1.194,1.194,0,0,0,1.321-1.216c0-.794-.582-1.111-1.321-1.111h-.9v2.326h.9ZM190.455,211.2v9.252h-5.6v-8.195c-2.433.687-3.7,2.062-3.7,3.965,0,1.745,1.109,2.8,3.119,2.062l.052.106a5.263,5.263,0,0,1-4.494,2.379,3.766,3.766,0,0,1-3.965-3.806c0-3.173,3.754-5.6,8.988-5.129v-.158c0-3.807-3.754-4.811-7.243-3.489l-.159-.159a8.122,8.122,0,0,1,7.032-3.754C188.5,204.275,190.455,206.866,190.455,211.2Zm-24.842,8.619a11.807,11.807,0,0,0,8.089-5.339h.159v2.96c0,2.273-1,3.014-3.171,3.014H158.9l-.106-.106,9.2-15.65h6.238Zm1.4-15.015a23.069,23.069,0,0,0-7.243,5.445l-.158-.052v-2.485c0-2.062.687-3.014,3.066-3.014h4.336Z" transform="translate(-99.15 -195.71)" fill="#862cd4"/>
    </g>
    <g id="Group_77443" data-name="Group 77443" transform="translate(-57.275 -55.814)">
      <g id="Group_76435" data-name="Group 76435" transform="translate(34.151 1)">
        <path id="Path_200562" data-name="Path 200562" d="M2.4,0V-3.111c0-2.04.017-3.57-.068-4.947h.017c.068.34.153.833.306,1.428L4.318,0H6.273V-11.356H4.658V-8.4c0,1.853,0,3.451.085,4.845H4.726c-.1-.493-.221-1.173-.425-2.006l-1.513-5.8H.765V0Zm7.956-11.526c-1.7,0-2.788,1-2.788,3.179v5.338C7.565-.884,8.4.17,10.234.17c1.938,0,2.856-1.037,2.856-3.213v-5.3C13.09-10.523,12.07-11.526,10.353-11.526Zm-.034,1.6c.714,0,.986.493.986,1.394v5.712c0,.986-.306,1.411-.986,1.411-.629,0-.969-.442-.969-1.394V-8.517C9.35-9.469,9.69-9.928,10.319-9.928Zm3.4-1.428L15.708,0H17.85l1.921-11.356H17.9L17.34-6.7c-.187,1.547-.442,3.179-.544,4.4h-.034C16.66-3.6,16.4-5.2,16.218-6.732l-.612-4.624ZM24.8-6.8H22.3V-9.724h2.635v-1.632H20.553V0h4.42l.221-1.615H22.3v-3.57h2.5ZM31.892,0h1.666V-11.356H31.025c-.442,2.72-1.071,6.1-1.258,7.718H29.75c-.153-1.6-.6-4.828-1.037-7.718H26.095V0h1.6V-4.029c0-1.955-.068-4.522-.1-5.848h.034C27.9-7.8,28.526-2.958,28.9,0h1.649c.493-3.281,1.122-7.888,1.377-9.86h.017c-.034,1.309-.051,3.706-.051,5.627Zm3.2,0H37.57c1.989,0,2.788-1.02,2.788-2.924v-.867c0-1.649-.765-2.074-1.275-2.278.51-.2,1.054-.68,1.054-2.278v-.425c0-1.666-.748-2.584-2.72-2.584H35.088Zm1.7-6.732V-9.911h.544c.833,0,1.173.357,1.173,1.309v.442c0,1.122-.306,1.428-1.275,1.428Zm0,1.411h.442c1.122,0,1.394.476,1.394,1.581v.765c0,1.1-.238,1.547-1.258,1.547h-.578ZM45.713-6.8h-2.5V-9.724h2.635v-1.632H41.463V0h4.42L46.1-1.615h-2.89v-3.57h2.5ZM46.937,0h1.751V-5.083H49.1c1.02,0,1.19.323,1.19,1.7A27.031,27.031,0,0,0,50.4,0h1.7A31.846,31.846,0,0,1,52-3.485c0-1.547-.391-2.023-1.037-2.329.425-.187,1.156-.629,1.156-2.38v-.425c0-2.04-1.02-2.737-2.754-2.737H46.937Zm1.751-9.911h.493c1,0,1.173.527,1.173,1.411v.391c0,1.241-.34,1.581-1.258,1.581h-.408Z" transform="translate(0 16)"/>
      </g>
      <path id="Path_200563" data-name="Path 200563" d="M1.143-3.384H2.16A2.571,2.571,0,0,0,3.1-3.542,1.394,1.394,0,0,0,3.73-4.01a1.259,1.259,0,0,0,.23-.77,1.485,1.485,0,0,0-.225-.841A1.378,1.378,0,0,0,3.1-6.129,2.527,2.527,0,0,0,2.124-6.3H.756V0H2.214A2.786,2.786,0,0,0,3.3-.2a1.622,1.622,0,0,0,.743-.6,1.813,1.813,0,0,0,.27-1.026,1.537,1.537,0,0,0-.175-.752,1.55,1.55,0,0,0-.468-.526,2.131,2.131,0,0,0-.661-.31,2.786,2.786,0,0,0-.756-.1H1.143v.288H2.214a2,2,0,0,1,.607.09,1.612,1.612,0,0,1,.509.266,1.227,1.227,0,0,1,.351.432,1.321,1.321,0,0,1,.126.59,1.422,1.422,0,0,1-.2.778A1.253,1.253,0,0,1,3.051-.6a2.023,2.023,0,0,1-.837.162H1.251V-5.859h.873a1.515,1.515,0,0,1,.977.293.986.986,0,0,1,.364.814.981.981,0,0,1-.18.608,1.072,1.072,0,0,1-.486.355,1.876,1.876,0,0,1-.675.117H1.143ZM5.814,0H8.937V-.468H5.814Zm0-5.832H8.937V-6.3H5.814Zm0,2.61H8.757V-3.69H5.814ZM5.553-6.3V0h.495V-6.3Zm5.31,4.185h3.231l-.162-.468H11.025Zm1.6-3.285,1.242,3.006.045.117L14.688,0h.558L12.465-6.543,9.684,0h.558l.945-2.313.054-.108Zm3.573-.9v4.266a2.622,2.622,0,0,0,.135.859,1.85,1.85,0,0,0,.4.67,1.83,1.83,0,0,0,.634.437,2.171,2.171,0,0,0,.851.157A2.171,2.171,0,0,0,18.9-.067,1.83,1.83,0,0,0,19.539-.5a1.85,1.85,0,0,0,.4-.67,2.622,2.622,0,0,0,.135-.859V-6.3h-.495v4.266a1.76,1.76,0,0,1-.4,1.206,1.419,1.419,0,0,1-1.125.45,1.419,1.419,0,0,1-1.125-.45,1.76,1.76,0,0,1-.4-1.206V-6.3Zm4.869.468h1.656V0h.5V-5.832h1.656V-6.3H20.907ZM29.322-6.3,27.513-3.042,25.749-6.3h-.558L27.27-2.583V0h.5V-2.592L29.88-6.3Z" transform="translate(3 15.18)"/>
    </g>
  </g>
</svg>
