<svg width="798" height="437" viewBox="0 0 798 437" fill="none" xmlns="http://www.w3.org/2000/svg">
<path d="M269.663 291.991C283.578 279.616 292.646 263.351 296.921 243.216H434.279C427.983 300.769 405.179 347.364 365.886 383.037C326.574 418.711 278.177 436.556 220.73 436.556C178.825 436.556 141.105 427.197 107.552 408.497C73.9997 389.798 47.8158 363.81 29.0006 330.536C10.1854 297.262 0.777832 259.916 0.777832 218.482C0.777832 177.048 10.1854 139.703 29.0006 106.429C47.8158 73.1541 73.9997 47.1669 107.552 28.4671C141.105 9.74904 178.825 0.408203 220.73 0.408203C277.265 0.408203 325 17.6179 363.936 52.0554C402.854 86.4748 425.855 131.598 432.884 187.407H297.493C291.752 168.998 281.933 154.187 268.018 142.956C254.121 131.743 238.543 126.128 221.302 126.128C197.568 126.128 178.431 134.615 163.891 151.588C149.314 168.561 142.053 190.86 142.053 218.464C142.053 245.905 149.386 268.112 164.016 285.086C178.682 302.059 197.747 310.528 221.302 310.528C239.652 310.528 255.767 304.349 269.663 291.991ZM757.213 178.593C783.88 204.58 797.222 238.2 797.222 279.398C797.222 326.502 781.877 364.483 751.168 393.305C720.441 422.145 679.985 436.556 629.728 436.556C580.078 436.556 539.712 422.091 508.609 393.16C477.489 364.21 461.947 326.72 461.947 280.615C461.947 255.446 466.221 230.113 474.753 204.635C483.284 179.156 496.483 151.279 514.35 121.04L577.485 14.3649L710.909 14.3468L636.202 140.212C643.66 139.812 649.544 139.612 653.873 139.612C696.064 139.612 730.511 152.606 757.213 178.593ZM667.126 318.069C676.73 308.129 681.541 295.244 681.541 279.398C681.541 263.569 676.73 250.576 667.126 240.417C657.503 230.258 645.037 225.188 629.746 225.188C614.436 225.188 601.952 230.276 592.366 240.417C582.725 250.576 577.932 263.569 577.932 279.398C577.932 295.244 582.725 308.129 592.348 318.069C601.952 328.028 614.436 333.008 629.728 333.008C645.037 333.008 657.521 328.028 667.126 318.069Z" fill="white"/>
</svg>
