<?xml version="1.0" encoding="UTF-8"?>
<svg version="1.1" viewBox="0 0 2048 1078" width="640" height="337" xmlns="http://www.w3.org/2000/svg">
<path transform="translate(0)" d="m0 0h2048v1078h-2048z" fill="#B41D45"/>
<path transform="translate(0)" d="m0 0h2048v415h-1229l1 83v71l-1 12h-819z" fill="#093163"/>
<path transform="translate(952,414)" d="m0 0h1085l11 1v248h-2048v-82h819v-166z" fill="#B41D45"/>
<path transform="translate(0,663)" d="m0 0h2048v166h-2048z" fill="#B41D45"/>
<path transform="translate(0,994)" d="m0 0h2048v84h-2048z" fill="#B41D45"/>
<path transform="translate(0,912)" d="m0 0h2048v82l-1 1h-2034l-13-1z" fill="#FDFEFD"/>
<path transform="translate(0,746)" d="m0 0h2048v83h-2048z" fill="#FDFEFD"/>
<path transform="translate(819,580)" d="m0 0h1228l1 1v82h-2048v-82z" fill="#FDFEFD"/>
<path transform="translate(819,83)" d="m0 0h1229v83h-1228l-1-1z" fill="#FDFEFD"/>
<path transform="translate(820,248)" d="m0 0 1228 1v83h-1217l-12-1v-82z" fill="#FDFEFD"/>
<path transform="translate(819)" d="m0 0h1229v83h-1229z" fill="#B41D45"/>
<path transform="translate(819,165)" d="m0 0 1229 1v83h-1226l-3-2z" fill="#B41D45"/>
<path transform="translate(952,414)" d="m0 0h1085l11 1v82l-5 1-1223-1-1-1v-81z" fill="#FDFEFD"/>
<path transform="translate(819,331)" d="m0 0 1229 1v83h-1228l-1-2z" fill="#B41D45"/>
<path transform="translate(545,85)" d="m0 0h2l7 20h17l5 1-1 3-11 7-4 3 1 8 5 15-5-2-14-10-5 2-13 10-2-2 6-18-2-4-15-10v-2l23-2 5-18z" fill="#FDFEFD"/>
<path transform="translate(135,85)" d="m0 0h2l6 16 2 4h16l6 1v2l-11 7-6 4 2 10 4 11-1 2-18-12-5 2-11 9h-3l2-9 3-9v-4l-15-10-2-1v-2l24-1 1-7z" fill="#FDFEFD"/>
<path transform="translate(749,491)" d="m0 0 3 1 7 19 21 1v3l-11 7-5 5 6 18v2l-5-1-10-8-5-2-15 11h-3l3-11 2-6v-5l-16-11v-2l22-1z" fill="#FDFEFD"/>
<path transform="translate(340,259)" d="m0 0h2l7 20h22v3l-16 11 1 7 4 12 1 4-5-2-14-10-9 5-9 7h-1l1-7 4-13-2-4-14-10-1-3h22l3-8 2-5z" fill="#FDFEFD"/>
<path transform="translate(749,143)" d="m0 0 3 1 7 19h20l2 2-13 10-4 4 6 18-1 3-17-12-5 2-12 9h-3l3-11 3-10-11-8-7-5v-1l24-1 4-16z" fill="#FDFEFD"/>
<path transform="translate(67,491)" d="m0 0 3 1 6 19 22 1-1 3-15 10 1 7 4 13v2l-4-1-11-8-5-2-13 10-5 1 3-9 3-12-14-10-3-2v-2l22-1z" fill="#FDFEFD"/>
<path transform="translate(409,317)" d="m0 0 2 1 6 18 1 1 22 1-5 5-12 9 3 12 3 10-5-2-12-9-3-1-14 10-4 2 1-7 4-12-1-4-16-12 1-2h22l6-19z" fill="#FDFEFD"/>
<path transform="translate(204,259)" d="m0 0 3 3 5 16 2 1h21l-2 4-14 10-1 2 6 18v3l-4-2-14-10-5 2-13 10h-2l2-9 3-9v-5l-17-12v-2h23l6-19z" fill="#FDFEFD"/>
<path transform="translate(749,259)" d="m0 0 3 1 7 19h21v3l-16 12 3 11 3 8-1 3-14-10-5-2-16 12h-2l2-9 3-9v-5l-17-12v-2h24l4-16z" fill="#FDFEFD"/>
<path transform="translate(135,201)" d="m0 0h2l6 16 1 5 22-1v3l-16 11 2 10 4 11-1 2-18-12-9 5-7 6h-3l2-9 3-9v-4l-12-8-5-4v-2h24l2-10z" fill="#FDFEFD"/>
<path transform="translate(340,491)" d="m0 0h2l7 20 22 1-1 3-15 10 1 7 5 15-5-1-14-10-5 2-11 9h-3l1-7 4-12-2-4-15-10v-2l24-1 1-8 3-11z" fill="#FDFEFD"/>
<path transform="translate(204,143)" d="m0 0h2l6 19 2 1h18l3 2-13 10-4 1 2 10 4 11v3l-5-2-10-8-5-2-14 10-4 2 1-6 4-12v-5l-17-12v-1l23-1 6-19z" fill="#FDFEFD"/>
<path transform="translate(135,433)" d="m0 0h2l6 16 1 5h22v3l-7 4-9 6 2 10 4 11-1 2-11-7-7-5-4 2-14 10-1-4 6-19-4-2-12-8-1-3 23-1 1-7z" fill="#FDFEFD"/>
<path transform="translate(409,201)" d="m0 0 2 1 5 15v4h22l2 2-15 11h-2l1 7 5 15v2l-5-2-12-9-3-1-14 10h-2v2h-2l1-7 4-12v-4l-13-9-4-4 5-1h18l6-19z" fill="#FDFEFD"/>
<path transform="translate(272,201)" d="m0 0 3 1 5 17v2h23v3l-12 8-4 3 1 8 4 12v2l-4-1-14-10-5 2-14 10-1-3 5-15v-5l-15-11-1-3h22z" fill="#FDFEFD"/>
<path transform="translate(613,143)" d="m0 0 3 1 5 16v3h21l3 2-15 11-2 1 1 7 5 15-2 1-15-11-3-1-13 9-5 3 1-7 4-13-2-4-13-9-2-1v-2l24-1 1-7z" fill="#FDFEFD"/>
<path transform="translate(749,27)" d="m0 0 3 1 7 19h11l10 1v3l-11 7-4 3h-2l6 17 1 6-7-4-11-8-5 2-12 9h-3l3-11 3-10-12-9-5-3v-2l23-1 2-9z" fill="#FDFEFD"/>
<path transform="translate(682,433)" d="m0 0h2l6 20 22 1v3l-16 10 2 9 4 13-5-1-13-10-5 2-12 9-4-1 5-13 2-8-4-2-12-8-1-3 22-1 6-19z" fill="#FDFEFD"/>
<path transform="translate(749,375)" d="m0 0 3 1 7 19 22 1-1 3-11 7-5 4 3 11 3 8-1 3-14-10-5-2-16 12-2-1 3-11 2-6v-5l-16-11v-2l22-1z" fill="#FDFEFD"/>
<path transform="translate(135,317)" d="m0 0h2l6 16 1 5h23l-5 5-10 7-2 1 2 10 4 10-1 3-11-7-7-5-9 5-9 7-1-4 5-15-1-4-11-8-5-5 2-1h22l1-7 2-5z" fill="#FDFEFD"/>
<path transform="translate(68,259)" d="m0 0 2 1 5 16v3h23v3l-16 11 1 7 4 12v3l-4-1-14-10-9 5-9 7h-2l1-5 5-15-2-4-14-10-1-3 23 1 1-5 5-15z" fill="#FDFEFD"/>
<path transform="translate(613,259)" d="m0 0 3 1 5 16v3h23v3l-16 11 1 7 4 12v4l-4-2-14-10-7 4-11 8-1-4 5-16-2-4-14-10v-3h22z" fill="#FDFEFD"/>
<path transform="translate(682,201)" d="m0 0h2l6 19 1 1h21v3l-16 12 1 5 4 12 1 4-5-1-10-8-5-2-17 12-1-3 5-16v-4l-17-12 1-2 22 1 3-11z" fill="#FDFEFD"/>
<path transform="translate(272,85)" d="m0 0 3 1 6 19 22 1-1 3-11 7-4 3 1 8 4 12v2l-4-1-14-10-5 2-12 9h-3l3-10 3-11-8-6-9-6v-2l22-1z" fill="#FDFEFD"/>
<path transform="translate(204,27)" d="m0 0 3 3 5 16 4 1 18 1 1 2-15 10h-2l2 10 4 11v2l-4-1-14-10-5 2-14 10-1-4 5-14v-5l-16-11v-2l23-1 2-9 3-10z" fill="#FDFEFD"/>
<path transform="translate(67,27)" d="m0 0 3 1 6 19h10l12 1-1 3-11 7-4 3 1 7 4 13v2l-4-1-14-10-5 2-12 9h-3l3-10 4-12-5-2-10-7-3-3 1-1 21-1z" fill="#FDFEFD"/>
<path transform="translate(477,491)" d="m0 0h2l6 19v2h22v3l-11 7-5 5 6 19-3 1-15-11-5 2-12 9h-3l1-5 4-12v-5l-16-11v-2l22-1z" fill="#FDFEFD"/>
<path transform="translate(545,432)" d="m0 0 2 1 7 20 22 1-1 3-11 7-5 5 6 17 1 3-2 1-14-10-5-2-16 12-2-2 6-18-2-4-15-10v-2l24-1 1-9 2-5z" fill="#FDFEFD"/>
<path transform="translate(272,433)" d="m0 0 3 1 5 17 1 2 21 1v3l-11 7-5 5 6 18v2l-4-1-14-10-4 2-13 9h-3l3-10 3-11-14-10-3-2v-2l22-1z" fill="#FDFEFD"/>
<path transform="translate(544,317)" d="m0 0h3l7 20 22 1v2l-10 7-7 5 7 21h-3l-16-11-9 5-9 7h-2l3-12 3-10-16-12v-3h21l5-14z" fill="#FDFEFD"/>
<path transform="translate(544,201)" d="m0 0 3 1 7 19h22v3l-9 6-7 5 1 8 5 15-5-2-14-10-5 2-12 9-3-1 6-18-2-4-16-11 1-2h17l6-1 4-13z" fill="#FDFEFD"/>
<path transform="translate(682,85)" d="m0 0h2l5 16v4h12l12 1v2l-11 7-6 4 2 9 4 13-5-1-10-8-5-2-10 7-5 4-4-1 5-13 1-8-13-9-4-4 24-1 1-6 4-13z" fill="#FDFEFD"/>
<path transform="translate(204,491)" d="m0 0 3 3 5 16 1 1 21 1 1 2-16 11-1 2 6 18v2l-5-1-10-8-5-2-11 8-7 4 1-6 4-12v-5l-16-11v-2h23l1-7 4-13z" fill="#FDFEFD"/>
<path transform="translate(409,85)" d="m0 0 2 1 5 15v4h13l11 1-5 5-12 8 2 9 4 13-5-1-13-10-5 2-11 8-4 2 1-6 4-13v-4l-15-10-2-1v-2l23-1 6-19z" fill="#FDFEFD"/>
<path transform="translate(340,27)" d="m0 0h2l6 16 1 5 7-1 15 1-1 3-15 10 1 7 5 15-5-1-12-9-4-1-15 11h-2l1-6 4-13-2-4-15-10 1-2 23-1 1-8 2-5z" fill="#FDFEFD"/>
<path transform="translate(409,433)" d="m0 0 2 1 6 19 22 1-2 4-14 9 2 9 4 13h-3l-16-11-7 4-11 8-1-4 5-15-1-4-15-11v-2l22-1 6-19z" fill="#FDFEFD"/>
<path transform="translate(613,375)" d="m0 0 3 1 6 19 22 1-1 3-13 9-3 1 7 21v2l-5-2-14-10-7 4-11 8-2-2 6-17-1-4-11-8-5-5 23-1z" fill="#FDFEFD"/>
<path transform="translate(477,259)" d="m0 0h2l6 19 2 1h21l-2 4-14 10-1 3 6 17v2l-4-1-14-10-5 2-14 10-1-3 5-15v-5l-14-10-3-3 4-1h19z" fill="#FDFEFD"/>
<path transform="translate(340,143)" d="m0 0h2l7 20 23 1-4 4-13 9 1 7 5 14v2l-5-2-12-9-4-1-13 10-4 1 1-6 4-13v-4l-5-2-10-7-2-1v-2l17-1 6-1 4-12z" fill="#FDFEFD"/>
<path transform="translate(614,27)" d="m0 0 2 1 5 16v3h14l9 1-1 3-15 10 1 7 5 15-5-1-13-10-4 1-15 11h-1l1-7 4-13-2-4-14-10v-2l23-1 1-8 4-11z" fill="#FDFEFD"/>
<path transform="translate(477,27)" d="m0 0h2l6 19 4 1 18 1v3l-16 10 3 12 3 10-4-1-14-10-5 2-12 9h-3l3-11 3-10-14-10-3-2v-2l22-1z" fill="#FDFEFD"/>
<path transform="translate(613,491)" d="m0 0 3 1 6 19 22 1-1 3-15 10 1 7 4 11v4l-4-1-12-9-3-1-9 6-8 6-2-2 6-18-2-4-13-9-2-2 1-1 22-1z" fill="#FDFEFD"/>
<path transform="translate(340,375)" d="m0 0h2l7 20 22 1-1 3-16 11 7 21-5-1-14-10-9 5-9 7-2-2 6-18-2-4-14-10-1-2 24-1 1-8 2-5z" fill="#FDFEFD"/>
<path transform="translate(477,143)" d="m0 0h2l6 19 1 1 22 1v2l-11 7-6 5 3 11 3 10-5-1-10-8-5-2-17 12-1-3 5-15v-5l-17-12 1-2h22z" fill="#FDFEFD"/>
<path transform="translate(204,375)" d="m0 0 3 3 5 16v2h23l-5 5-12 9 3 11 3 8v3l-4-2-14-10-5 2-12 9-3 1 2-9 3-9v-5l-16-11v-2h23l1-7 4-13z" fill="#FDFEFD"/>
<path transform="translate(477,375)" d="m0 0h2l6 19 1 1 22 1-5 5-11 8-1 3 6 17v2l-4-1-10-7-4-3-5 2-12 9h-3l3-11 2-6v-5l-16-11v-2l22-1z" fill="#FDFEFD"/>
<path transform="translate(682,317)" d="m0 0h2l6 19 1 1h21v3l-15 11-1 3 6 19-5-1-10-8-5-2-17 12-2-2 4-11 2-9v-2l-4-2-12-8-1-2 23-1z" fill="#FDFEFD"/>
<path transform="translate(272,317)" d="m0 0 3 1 6 19h22l-2 4-15 11 3 10 3 11-4-1-14-10-9 5-10 7-1-3 6-18-5-5-11-8-1-2 22-1z" fill="#FDFEFD"/>
<path transform="translate(67,143)" d="m0 0 3 1 5 16v3l24 1-4 4-13 9 1 7 4 13v2l-4-1-14-10-5 2-12 9h-3l3-9 3-12-9-7-8-6 1-2h21l5-14z" fill="#FDFEFD"/>
<path transform="translate(68,375)" d="m0 0 2 1 6 19 22 1-1 3-9 6-7 5 6 19v2l-4-1-11-8-5-2-15 11h-3l3-10 3-11-9-7-8-6v-1h23l1-5 5-15z" fill="#FDFEFD"/>
</svg>
