<?xml version="1.0" encoding="UTF-8"?>
<svg version="1.1" viewBox="0 0 2048 1366" width="640" height="427" xmlns="http://www.w3.org/2000/svg">
<path transform="translate(0)" d="m0 0h2048v1365l-2048 1z" fill="#023497"/>
<path transform="translate(1417,382)" d="m0 0 3 1 10 31 5 15v2h53l-1 4-15 10-21 16-4 3 2 9 12 36 1 6-5-2-7-6-16-11-14-10-5 1-17 12-18 13-3 3h-3l1-7 4-10 10-31v-4l-14-10-18-13-9-6 1-3h52l3-11 12-37z" fill="#B39F37"/>
<path transform="translate(629,836)" d="m0 0 3 3 14 43 1 4h53l-2 4-10 7-19 14-10 8 1 6 11 35 2 5v5l-7-4-11-9-12-8-11-8-5 1-16 11-18 13-4 4h-3l1-7 11-33 3-11v-2l-5-2-13-10-19-13-4-3 1-3h52l3-12 9-27 3-10z" fill="#B39F37"/>
<path transform="translate(629,381)" d="m0 0 3 3 14 43 1 4h53l-2 4-17 12-21 16-1 5 15 45-3 1-11-8-18-13-10-7-5 1-16 11-18 13-4 4h-3l1-7 12-36 2-10-5-2-13-10-16-11-7-5 1-3h52l2-9 10-30 3-10z" fill="#B39F37"/>
<path transform="translate(1417,837)" d="m0 0 3 1 8 25 7 21 1 1 52 1-2 4-18 13-16 12-5 4 2 9 12 36 1 6-5-2-11-9-22-15-4-3-5 1-20 14-16 12-2 2h-3l1-7 5-14 9-27v-4l-15-11-20-14-6-4 1-3 52-1 13-40z" fill="#B39F37"/>
<path transform="translate(1022,1064)" d="m0 0h3l4 11 12 37 2 1h51l-1 4-17 12-12 9-10 7-1 4 12 38 3 7v3l-6-2-11-9-23-16-5-2-34 24-7 6h-2l1-7 12-36 2-9-13-10-20-14-8-6 1-3h51l3-8 10-30z" fill="#B39F37"/>
<path transform="translate(795 1e3)" d="m0 0 3 1 15 45v3h53l-1 4-18 13-21 16 1 8 10 32 3 8v3l-6-2-9-8-19-13-8-6-4 1-17 12-19 14-3 3-3-1 1-5 12-36 3-11-4-2-14-10-17-12-6-4v-3l53-1 2-10 10-29 2-9z" fill="#B39F37"/>
<path transform="translate(795,215)" d="m0 0 3 1 10 30 6 17v2h53l-4 5-12 8-16 12-9 7 1 8 9 28 4 11v4l-5-2-16-12-16-11-5-4-4 1-34 24-5 5h-3l1-6 12-36 3-11-4-2-11-8-20-14-7-5 1-2 52-1 12-36 3-12z" fill="#B39F37"/>
<path transform="translate(1479,609)" d="m0 0 3 3 6 20 8 24v2h51l2 1-2 4-16 11-12 9-11 8 2 9 10 32 3 6v4l-4-1-13-10-19-13-7-5-5 2-18 13-14 10-6 5h-2l1-7 12-36 2-9-13-10-14-10-14-9v-3l52-1 3-7 13-40z" fill="#B39F37"/>
<path transform="translate(1251 1e3)" d="m0 0 3 2 7 23 7 21v3h53v3l-13 10-14 10-13 10 1 8 9 28 5 13v2l-5-1-11-9-19-13-8-6-5 2-16 11-18 13-5 4-2-1 3-10 10-31 2-5 1-6-4-2-11-8-17-12-9-6v-3l52-1 12-36 3-11z" fill="#B39F37"/>
<path transform="translate(567,609)" d="m0 0h3l16 48 1 1h50l2 1-2 4-15 10-24 18 1 7 10 31 3 8v5l-5-2-11-9-16-11-10-7-5 2-20 14-12 9-6 5h-2l1-7 8-24 6-19-2-4-17-12-14-10-8-5v-3l52-1 3-8 11-34z" fill="#B39F37"/>
<path transform="translate(1023,154)" d="m0 0 4 4 8 26 6 18 1 1 52 1-2 4-19 13-20 15 1 6 12 38 2 7-5-2-19-14-15-10-4-3-5 2-18 13-14 10-6 5h-2l1-7 11-33 3-12-13-10-23-16-5-3v-3l52-1 10-28 4-14z" fill="#B39F37"/>
<path transform="translate(1250,216)" d="m0 0h3l3 8 12 37 1 4h53l-1 3-15 10-21 16-4 3 1 7 12 38 1 6-5-2-10-8-16-11-11-8-4 1-14 10-17 12-8 7h-3l1-6 12-36 2-5v-6l-14-10-17-12-9-6v-3l52-1 12-36 3-11z" fill="#B39F37"/>
</svg>
