<svg width="120" height="28" viewBox="0 0 120 28" fill="none" xmlns="http://www.w3.org/2000/svg">
<path d="M34.251 1.502V6.542H35.993C37.503 6.542 38.389 5.61 38.389 4.02C38.389 2.434 37.499 1.502 35.993 1.502H34.251ZM34.884 2.068H35.95C37.077 2.068 37.741 2.794 37.741 4.028C37.741 5.257 37.084 5.977 35.951 5.977H34.884V2.067V2.068ZM40.12 6.543V1.502H39.487V6.542H40.12V6.543ZM41.172 5.226C41.239 6.096 41.982 6.661 43.058 6.661C44.219 6.661 44.955 6.071 44.955 5.145C44.955 4.405 44.533 3.999 43.48 3.737L42.95 3.597C42.249 3.419 41.97 3.192 41.97 2.797C41.97 2.287 42.418 1.952 43.093 1.952C43.727 1.952 44.156 2.26 44.244 2.777H44.881C44.828 1.963 44.096 1.383 43.114 1.383C42.041 1.383 41.32 1.963 41.32 2.819C41.32 3.535 41.718 3.947 42.636 4.178L43.286 4.345C43.987 4.52 44.304 4.792 44.304 5.222C44.304 5.722 43.801 6.088 43.118 6.088C42.397 6.088 41.89 5.753 41.813 5.226H41.172ZM46.01 1.502V6.542H46.644V4.744H47.921C48.874 4.744 49.554 4.077 49.554 3.134C49.554 2.174 48.889 1.503 47.928 1.503H46.01V1.502ZM46.644 2.061H47.763C48.498 2.061 48.903 2.441 48.903 3.133C48.903 3.8 48.483 4.185 47.763 4.185H46.643V2.06L46.644 2.061ZM52.724 1.383C51.288 1.383 50.394 2.399 50.394 4.02C50.394 5.634 51.267 6.661 52.724 6.661C54.174 6.661 55.054 5.631 55.054 4.021C55.054 2.403 54.167 1.383 52.724 1.383ZM52.724 1.963C53.762 1.963 54.402 2.759 54.402 4.02C54.402 5.271 53.765 6.081 52.724 6.081C51.668 6.081 51.046 5.271 51.046 4.021C51.046 2.759 51.689 1.963 52.724 1.963ZM56.777 6.543V2.633H56.834L59.589 6.543H60.205V1.502H59.578V5.425H59.522L56.767 1.502H56.151V6.542H56.777V6.543ZM62.133 6.543V1.502H61.499V6.542H62.133V6.543ZM62.108 1.04L62.956 0H62.196L61.573 1.04H62.108ZM65.521 6.543L67.393 1.502H66.728L65.236 5.729H65.18L63.688 1.502H63.023L64.895 6.542H65.521V6.543ZM71.43 5.977H68.917V4.244H71.299V3.685H68.917V2.068H71.429V1.502H68.283V6.542H71.429L71.43 5.977ZM75.659 5.977H73.209V1.502H72.576V6.542H75.659V5.977ZM79.332 6.543V2.633H79.388L82.143 6.543H82.759V1.502H82.133V5.425H82.077L79.32 1.502H78.705V6.542H79.331L79.332 6.543ZM86.186 1.383C84.751 1.383 83.857 2.399 83.857 4.02C83.857 5.634 84.73 6.661 86.187 6.661C87.636 6.661 88.516 5.631 88.516 4.021C88.516 2.403 87.629 1.383 86.186 1.383ZM86.186 1.963C87.224 1.963 87.865 2.759 87.865 4.02C87.865 5.271 87.228 6.081 86.186 6.081C85.131 6.081 84.508 5.271 84.508 4.021C84.508 2.759 85.152 1.963 86.186 1.963ZM60.255 15.534C57.802 15.534 55.861 17.373 55.861 19.927C55.8566 20.5053 55.9673 21.0786 56.1865 21.6137C56.4058 22.1488 56.7293 22.6349 57.1382 23.0438C57.5471 23.4527 58.0332 23.7762 58.5683 23.9955C59.1034 24.2147 59.6767 24.3254 60.255 24.321C62.707 24.321 64.648 22.481 64.648 19.927C64.648 17.271 62.707 15.534 60.255 15.534ZM60.255 22.482C58.926 22.482 57.802 21.358 57.802 19.825C57.802 18.293 58.926 17.169 60.255 17.169C61.583 17.169 62.707 18.19 62.707 19.825C62.707 21.358 61.584 22.482 60.255 22.482ZM50.751 15.534C48.299 15.534 46.358 17.373 46.358 19.927C46.3536 20.5053 46.4643 21.0786 46.6835 21.6137C46.9028 22.1488 47.2263 22.6349 47.6352 23.0438C48.0441 23.4527 48.5302 23.7762 49.0653 23.9955C49.6004 24.2147 50.1737 24.3254 50.752 24.321C53.204 24.321 55.145 22.481 55.145 19.927C55.145 17.271 53.204 15.534 50.751 15.534ZM50.751 22.482C49.423 22.482 48.299 21.358 48.299 19.825C48.299 18.293 49.423 17.169 50.752 17.169C52.08 17.169 53.204 18.19 53.204 19.825C53.204 21.358 52.08 22.482 50.751 22.482ZM39.409 16.862V18.702H43.803C43.701 19.722 43.293 20.54 42.781 21.052C42.168 21.664 41.146 22.379 39.409 22.379C36.65 22.379 34.606 20.234 34.606 17.475C34.606 14.716 36.752 12.571 39.409 12.571C40.839 12.571 41.964 13.184 42.781 13.899L44.11 12.571C42.986 11.549 41.555 10.731 39.511 10.731C35.833 10.731 32.665 13.797 32.665 17.475C32.665 21.153 35.833 24.218 39.511 24.218C41.555 24.218 42.986 23.605 44.211 22.278C45.438 21.051 45.847 19.314 45.847 17.986C45.847 17.577 45.847 17.169 45.745 16.862H39.409ZM85.8 18.292C85.392 17.271 84.37 15.534 82.122 15.534C79.874 15.534 78.034 17.271 78.034 19.927C78.034 22.379 79.874 24.321 82.326 24.321C84.268 24.321 85.494 23.095 85.903 22.379L84.472 21.358C83.962 22.073 83.348 22.584 82.326 22.584C81.304 22.584 80.691 22.175 80.18 21.256L86.005 18.803L85.8 18.292ZM79.874 19.722C79.874 18.088 81.202 17.169 82.122 17.169C82.837 17.169 83.552 17.577 83.757 18.089L79.874 19.722ZM75.071 23.912H77.013V11.141H75.07L75.071 23.912ZM72.006 16.453C71.495 15.943 70.677 15.432 69.656 15.432C67.51 15.432 65.466 17.373 65.466 19.825C65.466 22.277 67.407 24.116 69.656 24.116C70.677 24.116 71.495 23.606 71.903 23.095H72.006V23.708C72.006 25.342 71.086 26.262 69.656 26.262C68.531 26.262 67.714 25.445 67.51 24.729L65.875 25.445C66.385 26.568 67.612 27.999 69.758 27.999C72.006 27.999 73.845 26.671 73.845 23.503V15.738H72.005L72.006 16.453ZM69.758 22.482C68.429 22.482 67.305 21.358 67.305 19.825C67.305 18.293 68.429 17.169 69.758 17.169C71.086 17.169 72.108 18.292 72.108 19.825C72.108 21.358 71.086 22.482 69.758 22.482ZM94.69 11.14H90.092V23.911H92.034V19.11H94.69C96.836 19.11 98.88 17.577 98.88 15.125C98.88 12.673 96.836 11.14 94.69 11.14ZM94.793 17.27H92.033V12.876H94.793C96.223 12.876 97.04 14.102 97.04 15.022C96.938 16.146 96.121 17.27 94.793 17.27ZM106.544 15.43C105.113 15.43 103.682 16.044 103.172 17.372L104.909 18.087C105.317 17.372 105.93 17.167 106.646 17.167C107.668 17.167 108.587 17.781 108.689 18.802V18.905C108.383 18.7 107.565 18.394 106.748 18.394C104.909 18.394 103.069 19.415 103.069 21.254C103.069 22.991 104.602 24.115 106.237 24.115C107.565 24.115 108.179 23.502 108.689 22.889H108.792V23.911H110.631V19.007C110.427 16.759 108.689 15.43 106.544 15.43ZM106.339 22.48C105.726 22.48 104.806 22.174 104.806 21.357C104.806 20.335 105.93 20.028 106.85 20.028C107.668 20.028 108.076 20.233 108.587 20.438C108.383 21.663 107.361 22.481 106.339 22.481V22.48ZM117.068 15.737L114.923 21.255H114.82L112.572 15.737H110.529L113.901 23.502L111.959 27.793H113.901L119.112 15.737H117.068ZM99.902 23.911H101.843V11.141H99.902V23.912V23.911ZM0.887993 24.934V2.354C0.887993 2.049 0.912993 1.77 0.975993 1.528C0.998993 1.44 1.02599 1.358 1.05999 1.281L13.61 13.755L1.15299 26.038C1.15299 26.038 0.887993 25.364 0.887993 24.934ZM18.829 9.773L23.369 12.367C24.799 13.184 24.799 14.513 23.369 15.33L18.429 17.997C18.429 17.997 15.175 14.713 14.333 13.843L18.829 9.773ZM1.49299 26.632C1.98499 26.97 2.63399 26.926 3.43999 26.568L17.887 18.257L13.907 14.171C12.52 15.48 1.49199 26.631 1.49199 26.631L1.49299 26.632ZM18.364 9.405L3.44499 0.925C2.52499 0.414 1.91499 0.408 1.40299 0.918L13.962 13.375L18.364 9.405Z" fill="white"/>
</svg>
