<svg width="24" height="24" viewBox="0 0 24 24" fill="none" xmlns="http://www.w3.org/2000/svg">
<path d="M16 10H18" stroke="white" stroke-width="2" stroke-linecap="round" stroke-linejoin="round"/>
<path d="M16 14H18" stroke="white" stroke-width="2" stroke-linecap="round" stroke-linejoin="round"/>
<path d="M6.17004 15C6.37618 14.414 6.75915 13.9065 7.26606 13.5474C7.77298 13.1884 8.37885 12.9955 9.00004 12.9955C9.62123 12.9955 10.2271 13.1884 10.734 13.5474C11.2409 13.9065 11.6239 14.414 11.83 15" stroke="white" stroke-width="2" stroke-linecap="round" stroke-linejoin="round"/>
<path d="M9 13C10.1046 13 11 12.1046 11 11C11 9.89543 10.1046 9 9 9C7.89543 9 7 9.89543 7 11C7 12.1046 7.89543 13 9 13Z" stroke="white" stroke-width="2" stroke-linecap="round" stroke-linejoin="round"/>
<path d="M20 5H4C2.89543 5 2 5.89543 2 7V17C2 18.1046 2.89543 19 4 19H20C21.1046 19 22 18.1046 22 17V7C22 5.89543 21.1046 5 20 5Z" stroke="white" stroke-width="2" stroke-linecap="round" stroke-linejoin="round"/>
</svg>
