<svg width="12" height="14" viewBox="0 0 12 14" fill="none" xmlns="http://www.w3.org/2000/svg">
<path d="M11.712 5.48925C10.5609 5.49176 9.43801 5.13261 8.502 4.4625V9.1365C8.50175 10.0022 8.23722 10.8471 7.74379 11.5584C7.25036 12.2696 6.55154 12.8133 5.74079 13.1167C4.93003 13.42 4.04598 13.4687 3.20684 13.256C2.3677 13.0434 1.61348 12.5797 1.04502 11.9268C0.476562 11.2739 0.120966 10.4631 0.0257805 9.60269C-0.069405 8.74228 0.100357 7.87332 0.512367 7.112C0.924377 6.35068 1.559 5.73329 2.33137 5.34238C3.10374 4.95147 3.97704 4.80568 4.8345 4.9245V7.275C4.44213 7.15153 4.02077 7.15521 3.63061 7.2855C3.24045 7.4158 2.90144 7.66604 2.66199 8.00051C2.42254 8.33497 2.29489 8.73654 2.29729 9.14788C2.29968 9.55921 2.43199 9.95927 2.67532 10.2909C2.91864 10.6226 3.26055 10.8689 3.6522 10.9946C4.04385 11.1203 4.46522 11.1191 4.85613 10.9911C5.24704 10.8631 5.5875 10.6148 5.82889 10.2817C6.07028 9.94867 6.20026 9.54784 6.20025 9.1365V0H8.50125C8.49975 0.195 8.51625 0.3885 8.55 0.57975C8.63 1.00693 8.7963 1.41329 9.03874 1.77398C9.28118 2.13468 9.59466 2.44212 9.96 2.6775C10.4797 3.02106 11.089 3.20416 11.712 3.204V5.48925Z" fill="white"/>
</svg>
