<svg width="108" height="28" viewBox="0 0 108 28" fill="none" xmlns="http://www.w3.org/2000/svg">
<path d="M16.118 13.727C16.1295 12.8234 16.3697 11.9375 16.8163 11.152C17.263 10.3665 17.9014 9.70694 18.672 9.235C18.1822 8.53619 17.5361 7.96127 16.7851 7.55593C16.0341 7.15058 15.199 6.92599 14.346 6.9C12.526 6.71 10.762 7.987 9.83499 7.987C8.88999 7.987 7.46199 6.919 5.92499 6.951C4.93105 6.98315 3.96231 7.27177 3.11284 7.78884C2.26338 8.30592 1.56206 9.03386 1.07699 9.902C-1.01901 13.525 0.544988 18.849 2.55199 21.777C3.55699 23.211 4.73099 24.813 6.26699 24.757C7.76999 24.694 8.33099 23.799 10.146 23.799C11.943 23.799 12.47 24.756 14.037 24.72C15.65 24.694 16.667 23.28 17.636 21.832C18.3574 20.8105 18.9126 19.6811 19.281 18.486C18.345 18.0903 17.5461 17.4281 16.9836 16.5817C16.4212 15.7353 16.1202 14.7422 16.118 13.726V13.727ZM13.157 4.974C14.0364 3.9205 14.4698 2.56531 14.365 1.197C13.0218 1.33772 11.7809 1.97891 10.889 2.993C10.4533 3.48792 10.1195 4.06391 9.90675 4.688C9.69398 5.31209 9.60638 5.97201 9.64899 6.63C10.3208 6.63683 10.9855 6.49138 11.593 6.20457C12.2006 5.91776 12.7353 5.49704 13.157 4.974ZM35.112 21.13H29.982L28.751 24.761H26.578L31.437 11.326H33.694L38.553 24.761H36.343L35.112 21.13ZM30.514 19.454H34.58L32.575 13.561H32.519L30.514 19.454ZM49.047 19.862C49.047 22.906 47.415 24.862 44.952 24.862C44.3285 24.8944 43.7085 24.7509 43.1626 24.4478C42.6168 24.1448 42.1671 23.6944 41.865 23.148H41.819V28H39.805V14.964H41.755V16.593H41.791C42.1064 16.0488 42.5635 15.6003 43.1137 15.2953C43.6638 14.9903 44.2863 14.8402 44.915 14.861C47.405 14.861 49.047 16.827 49.047 19.862ZM46.977 19.862C46.977 17.879 45.95 16.575 44.384 16.575C42.845 16.575 41.81 17.906 41.81 19.862C41.81 21.836 42.845 23.157 44.384 23.157C45.95 23.157 46.977 21.863 46.977 19.862ZM59.838 19.862C59.838 22.906 58.206 24.862 55.743 24.862C55.1195 24.8944 54.4995 24.7509 53.9536 24.4478C53.4078 24.1448 52.9581 23.6944 52.656 23.148H52.61V27.999H50.596V14.964H52.546V16.593H52.582C52.8973 16.0487 53.3544 15.6002 53.9046 15.2952C54.4547 14.9902 55.0773 14.8401 55.706 14.861C58.196 14.861 59.838 16.827 59.838 19.862ZM57.768 19.862C57.768 17.879 56.741 16.575 55.175 16.575C53.636 16.575 52.601 17.906 52.601 19.862C52.601 21.836 53.636 23.157 55.175 23.157C56.741 23.157 57.768 21.863 57.768 19.862ZM66.976 21.015C67.125 22.348 68.421 23.222 70.193 23.222C71.89 23.222 73.112 22.348 73.112 21.146C73.112 20.104 72.375 19.479 70.631 19.051L68.887 18.631C66.416 18.036 65.269 16.882 65.269 15.01C65.269 12.692 67.292 11.1 70.165 11.1C73.009 11.1 74.958 12.692 75.024 15.01H72.99C72.868 13.67 71.758 12.86 70.136 12.86C68.513 12.86 67.403 13.679 67.403 14.87C67.403 15.82 68.113 16.38 69.847 16.807L71.33 17.171C74.09 17.822 75.238 18.93 75.238 20.895C75.238 23.409 73.232 24.983 70.043 24.983C67.058 24.983 65.043 23.445 64.913 21.015H66.976ZM79.589 12.646V14.965H81.454V16.557H79.59V21.957C79.59 22.796 79.963 23.187 80.783 23.187C81.005 23.183 81.226 23.167 81.446 23.14V24.723C81.077 24.792 80.702 24.823 80.327 24.816C78.341 24.816 77.567 24.071 77.567 22.171V16.557H76.14V14.965H77.566V12.646H79.589ZM82.535 19.862C82.535 16.78 84.353 14.844 87.188 14.844C90.033 14.844 91.843 16.78 91.843 19.862C91.843 22.952 90.043 24.881 87.188 24.881C84.335 24.881 82.535 22.953 82.535 19.862ZM89.791 19.862C89.791 17.748 88.821 16.5 87.188 16.5C85.557 16.5 84.588 17.758 84.588 19.862C84.588 21.985 85.557 23.223 87.188 23.223C88.82 23.223 89.791 21.985 89.791 19.863V19.862ZM93.502 14.964H95.422V16.631H95.469C95.5988 16.1095 95.9043 15.6488 96.3342 15.3263C96.7641 15.0039 97.292 14.8396 97.829 14.861C98.061 14.861 98.293 14.885 98.519 14.936V16.816C98.2262 16.7272 97.9208 16.6866 97.615 16.696C97.1745 16.6781 96.7401 16.8041 96.3775 17.0549C96.0149 17.3056 95.7438 17.6676 95.605 18.086C95.5129 18.3638 95.4822 18.6582 95.515 18.949V24.759H93.502V14.964ZM107.806 21.883C107.535 23.661 105.8 24.881 103.581 24.881C100.727 24.881 98.955 22.971 98.955 19.909C98.955 16.836 100.736 14.844 103.496 14.844C106.211 14.844 107.918 16.705 107.918 19.675V20.365H100.988V20.485C100.955 20.8459 101 21.2095 101.12 21.5516C101.239 21.8936 101.431 22.2061 101.681 22.468C101.93 22.7309 102.233 22.9375 102.568 23.0741C102.904 23.2107 103.265 23.2741 103.627 23.26C104.103 23.3043 104.58 23.1941 104.988 22.9459C105.396 22.6977 105.713 22.3247 105.893 21.882L107.806 21.883ZM100.998 18.959H105.903C105.922 18.6347 105.873 18.3101 105.759 18.0058C105.646 17.7014 105.47 17.424 105.244 17.191C105.018 16.9573 104.746 16.773 104.445 16.6494C104.144 16.5258 103.821 16.4658 103.496 16.473C103.168 16.4706 102.843 16.5332 102.54 16.6572C102.237 16.7811 101.961 16.9639 101.729 17.1951C101.496 17.4263 101.312 17.7012 101.187 18.0039C101.061 18.3067 100.997 18.6313 100.998 18.959ZM27.846 0.442V5.545H29.589C31.1 5.545 31.988 4.601 31.988 2.992C31.988 1.386 31.097 0.442 29.589 0.442H27.846ZM28.48 1.015H29.547C30.674 1.015 31.34 1.75 31.34 2.999C31.34 4.244 30.681 4.972 29.547 4.972H28.48V1.015ZM33.023 5.545H33.629V1.733H33.024L33.023 5.545ZM33.326 0.997C33.4334 0.989618 33.534 0.941739 33.6075 0.863036C33.681 0.784333 33.7219 0.680673 33.7219 0.573C33.7219 0.465327 33.681 0.361667 33.6075 0.282964C33.534 0.204261 33.4334 0.156382 33.326 0.149C33.2186 0.156382 33.118 0.204261 33.0445 0.282964C32.971 0.361667 32.9301 0.465327 32.9301 0.573C32.9301 0.680673 32.971 0.784333 33.0445 0.863036C33.118 0.941739 33.2186 0.989618 33.326 0.997ZM34.697 2.776C34.697 3.328 35.021 3.636 35.732 3.809L36.384 3.968C36.789 4.067 36.986 4.244 36.986 4.505C36.986 4.855 36.62 5.099 36.109 5.099C35.623 5.099 35.32 4.894 35.218 4.572H34.594C34.661 5.205 35.243 5.612 36.088 5.612C36.951 5.612 37.61 5.142 37.61 4.459C37.61 3.911 37.264 3.6 36.55 3.427L35.965 3.285C35.517 3.175 35.306 3.013 35.306 2.751C35.306 2.411 35.658 2.181 36.109 2.181C36.567 2.181 36.863 2.384 36.944 2.688H37.543C37.462 2.062 36.909 1.666 36.113 1.666C35.306 1.666 34.697 2.143 34.697 2.776ZM40.41 1.666C39.892 1.666 39.438 1.931 39.195 2.369H39.138V1.733H38.561V6.818H39.166V4.972H39.223C39.431 5.375 39.867 5.612 40.41 5.612C41.375 5.612 42.006 4.831 42.006 3.639C42.006 2.44 41.379 1.666 40.41 1.666ZM40.265 5.064C39.582 5.064 39.149 4.512 39.149 3.639C39.149 2.762 39.582 2.214 40.269 2.214C40.963 2.214 41.379 2.748 41.379 3.639C41.379 4.53 40.963 5.064 40.265 5.064ZM44.517 5.612C45.598 5.612 46.267 4.862 46.267 3.639C46.267 2.412 45.598 1.666 44.517 1.666C43.435 1.666 42.767 2.412 42.767 3.639C42.767 4.862 43.435 5.612 44.517 5.612ZM44.517 5.064C43.798 5.064 43.393 4.541 43.393 3.639C43.393 2.734 43.798 2.214 44.517 2.214C45.235 2.214 45.64 2.734 45.64 3.639C45.64 4.541 45.236 5.064 44.517 5.064ZM47.218 5.545H47.824V3.289C47.824 2.62 48.215 2.214 48.821 2.214C49.427 2.214 49.716 2.539 49.716 3.225V5.545H50.322V3.077C50.322 2.171 49.846 1.666 48.994 1.666C48.413 1.666 48.043 1.913 47.853 2.334H47.796V1.733H47.218V5.545ZM51.445 5.545H52.051V1.733H51.445V5.545ZM52.023 1.202L52.837 0H52.111L51.488 1.202H52.023ZM56.306 1.733H55.658L54.619 4.873H54.563L53.523 1.733H52.875L54.281 5.545H54.901L56.306 1.733ZM58.49 2.203C59.092 2.203 59.494 2.649 59.508 3.324H57.416C57.462 2.649 57.884 2.203 58.49 2.203ZM59.49 4.558C59.332 4.894 59 5.075 58.511 5.075C57.866 5.075 57.447 4.597 57.416 3.844V3.816H60.146V3.582C60.146 2.398 59.522 1.666 58.497 1.666C57.454 1.666 56.785 2.444 56.785 3.642C56.785 4.848 57.444 5.612 58.497 5.612C59.328 5.612 59.92 5.209 60.097 4.558H59.49ZM61.132 5.545H61.738V0.219H61.132V5.545ZM64.95 5.545H65.556V3.289C65.556 2.62 65.946 2.214 66.553 2.214C67.159 2.214 67.447 2.539 67.447 3.225V5.545H68.053V3.077C68.053 2.171 67.578 1.666 66.725 1.666C66.144 1.666 65.775 1.913 65.584 2.334H65.528V1.733H64.95V5.545ZM70.332 5.078C69.892 5.078 69.564 4.852 69.564 4.463C69.564 4.081 69.818 3.879 70.396 3.84L71.417 3.773V4.123C71.417 4.668 70.955 5.078 70.332 5.078ZM70.219 5.612C70.727 5.612 71.142 5.389 71.389 4.982H71.445V5.545H72.023V2.935C72.023 2.143 71.505 1.665 70.579 1.665C69.769 1.665 69.169 2.069 69.089 2.681H69.702C69.786 2.38 70.103 2.207 70.558 2.207C71.125 2.207 71.417 2.465 71.417 2.935V3.282L70.321 3.349C69.437 3.402 68.937 3.795 68.937 4.477C68.937 5.174 69.483 5.612 70.219 5.612Z" fill="white"/>
</svg>
