<svg width="15" height="11" viewBox="0 0 15 11" fill="none" xmlns="http://www.w3.org/2000/svg">
<path d="M14.6865 1.64925C14.6018 1.33007 14.4347 1.03874 14.202 0.80444C13.9693 0.570144 13.6791 0.401104 13.3605 0.31425C12.1905 1.11759e-07 7.5 0 7.5 0C7.5 0 2.8095 6.70552e-08 1.6395 0.315C1.3209 0.401854 1.0307 0.570894 0.797987 0.80519C0.565269 1.03949 0.398196 1.33082 0.3135 1.65C-2.23517e-08 2.82675 0 5.283 0 5.283C0 5.283 -2.23517e-08 7.73925 0.3135 8.91675C0.486 9.56625 0.9945 10.0568 1.6395 10.23C2.8095 10.5458 7.5 10.5458 7.5 10.5458C7.5 10.5458 12.1905 10.5458 13.3605 10.2308C13.6779 10.1483 13.9677 9.98328 14.2006 9.75248C14.4335 9.52169 14.6012 9.23334 14.6865 8.91675C15 7.74 15 5.283 15 5.283C15 5.283 15 2.82675 14.6865 1.64925ZM5.9655 7.5135V3.0525L9.8865 5.283L5.9655 7.5135Z" fill="white"/>
</svg>
