<svg width="14" height="14" viewBox="0 0 14 14" fill="none" xmlns="http://www.w3.org/2000/svg">
<path d="M3.95489 0.0466356C3.23639 0.0803856 2.74589 0.195886 2.31689 0.363886C1.87364 0.536386 1.49714 0.768886 1.12289 1.14389C0.780139 1.48167 0.515227 1.89017 0.346636 2.34089C0.180136 2.77064 0.0676357 3.26189 0.0361357 3.98039C0.00463566 4.70039 -0.00286447 4.92989 0.000885528 6.76289C0.00463553 8.59589 0.0128856 8.82539 0.0466356 9.54539C0.0811356 10.2639 0.195886 10.7544 0.363886 11.1834C0.536386 11.6266 0.768886 12.0031 1.14389 12.3774C1.52039 12.7524 1.89764 12.9819 2.34164 13.1536C2.77139 13.3194 3.26189 13.4326 3.98039 13.4641C4.70039 13.4956 4.93064 13.5031 6.76289 13.4994C8.59589 13.4956 8.82539 13.4881 9.54539 13.4536C10.2646 13.4191 10.7544 13.3036 11.1834 13.1371C11.6335 12.9666 12.041 12.6999 12.3774 12.3556C12.7201 12.0178 12.985 11.6093 13.1536 11.1586C13.3194 10.7296 13.4326 10.2384 13.4641 9.52064C13.4956 8.80064 13.5031 8.56964 13.4994 6.73739C13.4956 4.90439 13.4874 4.67489 13.4536 3.95489C13.4191 3.23639 13.3044 2.74589 13.1364 2.31689C12.9662 1.86695 12.7 1.4595 12.3564 1.12289C12.0185 0.779954 11.6097 0.515022 11.1586 0.346636C10.7296 0.180886 10.2384 0.0676355 9.51989 0.0361355C8.79989 0.00463549 8.57039 -0.00286446 6.73739 0.000885539C4.90439 0.00463554 4.67489 0.0121356 3.95489 0.0466356ZM4.03364 12.2491C3.37514 12.2206 3.01814 12.1111 2.77964 12.0196C2.48647 11.9117 2.22104 11.7398 2.00264 11.5164C1.7782 11.2988 1.60523 11.0339 1.49639 10.7409C1.40339 10.5031 1.29239 10.1461 1.26164 9.48839C1.22789 8.77589 1.22039 8.56289 1.21664 6.76064C1.21364 4.95839 1.22039 4.74539 1.25114 4.03289C1.27964 3.37514 1.38914 3.01739 1.48064 2.78039C1.60289 2.46389 1.74914 2.23889 1.98464 2.00264C2.22014 1.76564 2.44439 1.61939 2.75939 1.49639C2.99789 1.40339 3.35489 1.29239 4.01189 1.26164C4.72439 1.22789 4.93739 1.22039 6.73964 1.21664C8.54189 1.21364 8.75489 1.21964 9.46739 1.25114C10.1251 1.27964 10.4829 1.38839 10.7199 1.48064C11.0364 1.60289 11.2614 1.74839 11.4976 1.98389C11.7346 2.22014 11.8809 2.44439 12.0046 2.76014C12.0969 2.99714 12.2071 3.35414 12.2386 4.01264C12.2724 4.72364 12.2799 4.93739 12.2836 6.73964C12.2874 8.54189 12.2806 8.75489 12.2491 9.46664C12.2206 10.1251 12.1111 10.4821 12.0196 10.7206C11.8974 11.0356 11.7519 11.2606 11.5156 11.4976C11.2801 11.7339 11.0559 11.8809 10.7409 12.0039C10.5031 12.0969 10.1454 12.2079 9.48839 12.2386C8.77589 12.2724 8.56289 12.2799 6.76064 12.2836C4.95839 12.2866 4.74539 12.2799 4.03364 12.2491ZM9.53639 3.14189C9.53663 3.24826 9.55783 3.35354 9.59876 3.45172C9.6397 3.5499 9.69957 3.63905 9.77496 3.71409C9.92721 3.86565 10.1334 3.95051 10.3483 3.95001C10.4546 3.94976 10.5599 3.92857 10.6581 3.88764C10.7563 3.8467 10.8454 3.78683 10.9205 3.71144C10.9955 3.63605 11.055 3.54662 11.0954 3.44825C11.1359 3.34988 11.1566 3.24451 11.1564 3.13814C11.1559 2.92331 11.0701 2.71748 10.9178 2.56593C10.7656 2.41438 10.5593 2.32951 10.3445 2.33001C10.1297 2.33051 9.92386 2.41632 9.7723 2.56858C9.62075 2.72084 9.53589 2.92706 9.53639 3.14189ZM3.28439 6.75689C3.28527 7.21197 3.37578 7.66241 3.55075 8.08251C3.72572 8.50261 3.98173 8.88414 4.30414 9.2053C4.62656 9.52646 5.00908 9.78097 5.42985 9.95431C5.85063 10.1276 6.30143 10.2164 6.75651 10.2155C7.21159 10.2146 7.66204 10.1241 8.08214 9.94914C8.50224 9.77417 8.88376 9.51817 9.20492 9.19575C9.52609 8.87334 9.7806 8.49082 9.95393 8.07004C10.1273 7.64926 10.216 7.19846 10.2151 6.74339C10.2143 6.28831 10.1237 5.83786 9.94877 5.41776C9.7738 4.99766 9.51779 4.61614 9.19538 4.29497C8.87296 3.97381 8.49044 3.7193 8.06967 3.54596C7.64889 3.37263 7.19809 3.28387 6.74301 3.28476C6.28793 3.28565 5.83748 3.37616 5.41738 3.55113C4.99728 3.7261 4.61576 3.9821 4.2946 4.30452C3.64598 4.95567 3.2826 5.83781 3.28439 6.75689ZM4.50014 6.75464C4.49904 6.1579 4.73504 5.58517 5.15623 5.16244C5.57741 4.73971 6.14927 4.5016 6.74601 4.50051C7.34275 4.49942 7.91548 4.73542 8.33821 5.1566C8.76094 5.57779 8.99904 6.14965 9.00014 6.74639C9.00113 7.34312 8.76503 7.91581 8.34378 8.33847C7.92252 8.76113 7.35062 8.99914 6.75389 9.00014C6.15715 9.00113 5.58446 8.76503 5.1618 8.34378C4.73914 7.92252 4.50113 7.35062 4.50014 6.75389V6.75464Z" fill="white"/>
</svg>
