<svg width="256" height="256" viewBox="0 0 256 256" fill="none" xmlns="http://www.w3.org/2000/svg">
<path d="M38 105.5L42 105.75L46.5 106.75L49.5 108L52.5 109.75L56.25 113.25L58 115.75L59.75 119.25L60.75 122.25L61 125H46.5L45.75 123.75L43.75 121L41.25 119.5L39.25 119L36.5 119.25L33.5 120.75L32 122.75L31 125.25L30.75 126.75V129.5L31.75 132.75L33.25 134.75L34.5 135.75L36 136.5L37.25 136.75H39.5L42 136L44 134.5L45.5 132.25L46.5 130H60.75L61.25 131L60.5 134.5L59 138.5L56.75 142L54.5 144.5H54V145L50.75 147.25L46.75 149L42.75 150L38.25 150.5L32.5 149.75L28 148.25L24.75 146.5L22.25 144.5L19.75 142L17.25 138L15.75 133.75L15.25 131.75V124.5L16.5 119.75L18.5 115.75L21 112.5L22.75 110.75L26.75 108.25L30.25 106.75L33.25 106L38 105.5Z" fill="white"/>
<path d="M76 107H90V107.75L87.5 111.75L84.25 117L82.5 119.75H86.25L89.75 120.5L93.25 122.25L96 124.75L97.75 127.5L98.75 130L99 131.25V137.25L98 140.75L96.25 143.75L95.25 145L92.5 147.25L89 149L86.75 149.75L81.5 150.5L75.5 149.75L71.5 148.25L69 146.5L67 144.75L65.25 142.25L64 139.5L63.25 136V132.5L64 128.5L65.5 124L68.5 118.25L71.75 113L75.25 107.25L76 107ZM80.5 128.75L78.5 129.5L77.25 130.5L76.25 132.5L76 134.75L77 137.25L78.75 138.75L80 139.25H82.25L84.5 138.25L85.75 136.75L86.25 135.5V132.5L85.25 130.5L83 129L80.5 128.75Z" fill="white"/>
<path d="M108.5 107H120.75L124.25 107.5L126.75 108.75L128 109.75L129.75 112.25L130.75 115V119.5L129.75 122.25L128.25 124.25L126.5 125.75L127.5 126.5L130 128.25L132 130.75L133.25 133.5L133.75 137.5L133.25 141L131.75 144L129.5 146.5L127 148L124.5 148.75H108.25L108 148V107.25L108.5 107ZM110.25 109L110 109.25V125.25L111.75 125.5L122.5 125.25L124.5 124.5L126.5 123L127.75 121.5L128.5 119.75L128.75 118.5V115.75L127.75 113L126.25 111L123.75 109.5L121 109H110.25ZM110 127.25V146.75L111.75 147L124.5 146.75L128 145L129.75 143.25L131 141L131.5 139.5V135.25L130.75 132.75L129.25 130.5L127.25 128.75L124.5 127.5L122.75 127.25H110Z" fill="white"/>
<path d="M176 107L177.5 107.25L180.5 111.25L183.5 115.5L186.5 119.5L189.5 123.75L193 128.5L196.5 133.5L198.75 136.5L202.25 141.25L203.75 143.5L204 107.25L204.25 107H205.75L206 107.25V149L205 148.75L203 146.5L199.75 141.75L197.25 138.5L195.5 136L192 131.25L189 127L182.5 118L179 113.25L178 111.75L177.75 148.75L177.5 149H176.25L176 148.75L175.75 122.25V108.5L176 107Z" fill="white"/>
<path d="M153 106.75L153.75 107L155.75 112L160.75 125.25L165.25 136.75L169.25 147.5L169.5 149H168L167.25 148.25L164.25 140.5L162.75 136.5V136L143.5 136.25L139.75 146L138.25 149L136.75 148.75L136.5 148.25L139.25 140.75L142 133.75L145.75 123.75L149 115.25L151.5 109L152.75 107L153 106.75ZM153 111.25L150.25 118L146.5 127.75L144.25 133.5L144 134L161.75 134.25L161.5 132.75L156.75 120.25L153.5 111.75L153 111.25Z" fill="white"/>
<path d="M239.25 106.75L240.5 107L240.25 108.25L237 112L234.75 114.75L232.25 117.5L230 120.25L227 123.75L225.25 125.75L225.75 127L228.25 130.5L231.5 135L234.75 139.75L237.5 143.5L240.75 148.25L240.5 149L238.5 148.75L236 145.5L224 128.5L223.25 128.25L220.75 131L220.5 131.5H220L219.5 132.5L218 134.5L217.5 134.75L217.25 135.75V141L217 148.75L216.75 149H215.5L215 148.25V107.25L215.25 107H216.75L217 107.25V131.75L218.25 130.75L221 127.25L223.75 124.25L226 121.5L229.25 117.75L231.5 115L234 112.25L235.5 110.25H236L236.5 109.25L238 107.5L239.25 106.75Z" fill="white"/>
</svg>
