<svg width="226" height="45" viewBox="0 0 226 45" fill="none" xmlns="http://www.w3.org/2000/svg">
<path d="M22.75 0L26.75 0.25L31.25 1.25L34.25 2.5L37.25 4.25L41 7.75L42.75 10.25L44.5 13.75L45.5 16.75L45.75 19.5H31.25L30.5 18.25L28.5 15.5L26 14L24 13.5L21.25 13.75L18.25 15.25L16.75 17.25L15.75 19.75L15.5 21.25V24L16.5 27.25L18 29.25L19.25 30.25L20.75 31L22 31.25H24.25L26.75 30.5L28.75 29L30.25 26.75L31.25 24.5H45.5L46 25.5L45.25 29L43.75 33L41.5 36.5L39.25 39H38.75V39.5L35.5 41.75L31.5 43.5L27.5 44.5L23 45L17.25 44.25L12.75 42.75L9.5 41L7 39L4.5 36.5L2 32.5L0.5 28.25L0 26.25V19L1.25 14.25L3.25 10.25L5.75 7L7.5 5.25L11.5 2.75L15 1.25L18 0.5L22.75 0Z" fill="white"/>
<path d="M60.75 1.5H74.75V2.25L72.25 6.25L69 11.5L67.25 14.25H71L74.5 15L78 16.75L80.75 19.25L82.5 22L83.5 24.5L83.75 25.75V31.75L82.75 35.25L81 38.25L80 39.5L77.25 41.75L73.75 43.5L71.5 44.25L66.25 45L60.25 44.25L56.25 42.75L53.75 41L51.75 39.25L50 36.75L48.75 34L48 30.5V27L48.75 23L50.25 18.5L53.25 12.75L56.5 7.5L60 1.75L60.75 1.5ZM65.25 23.25L63.25 24L62 25L61 27L60.75 29.25L61.75 31.75L63.5 33.25L64.75 33.75H67L69.25 32.75L70.5 31.25L71 30V27L70 25L67.75 23.5L65.25 23.25Z" fill="white"/>
<path d="M93.25 1.5H105.5L109 2L111.5 3.25L112.75 4.25L114.5 6.75L115.5 9.5V14L114.5 16.75L113 18.75L111.25 20.25L112.25 21L114.75 22.75L116.75 25.25L118 28L118.5 32L118 35.5L116.5 38.5L114.25 41L111.75 42.5L109.25 43.25H93L92.75 42.5V1.75L93.25 1.5ZM95 3.5L94.75 3.75V19.75L96.5 20L107.25 19.75L109.25 19L111.25 17.5L112.5 16L113.25 14.25L113.5 13V10.25L112.5 7.5L111 5.5L108.5 4L105.75 3.5H95ZM94.75 21.75V41.25L96.5 41.5L109.25 41.25L112.75 39.5L114.5 37.75L115.75 35.5L116.25 34V29.75L115.5 27.25L114 25L112 23.25L109.25 22L107.5 21.75H94.75Z" fill="white"/>
<path d="M160.75 1.5L162.25 1.75L165.25 5.75L168.25 10L171.25 14L174.25 18.25L177.75 23L181.25 28L183.5 31L187 35.75L188.5 38L188.75 1.75L189 1.5H190.5L190.75 1.75V43.5L189.75 43.25L187.75 41L184.5 36.25L182 33L180.25 30.5L176.75 25.75L173.75 21.5L167.25 12.5L163.75 7.75L162.75 6.25L162.5 43.25L162.25 43.5H161L160.75 43.25L160.5 16.75V3L160.75 1.5Z" fill="white"/>
<path d="M137.75 1.25L138.5 1.5L140.5 6.5L145.5 19.75L150 31.25L154 42L154.25 43.5H152.75L152 42.75L149 35L147.5 31V30.5L128.25 30.75L124.5 40.5L123 43.5L121.5 43.25L121.25 42.75L124 35.25L126.75 28.25L130.5 18.25L133.75 9.75L136.25 3.5L137.5 1.5L137.75 1.25ZM137.75 5.75L135 12.5L131.25 22.25L129 28L128.75 28.5L146.5 28.75L146.25 27.25L141.5 14.75L138.25 6.25L137.75 5.75Z" fill="white"/>
<path d="M224 1.25L225.25 1.5L225 2.75L221.75 6.5L219.5 9.25L217 12L214.75 14.75L211.75 18.25L210 20.25L210.5 21.5L213 25L216.25 29.5L219.5 34.25L222.25 38L225.5 42.75L225.25 43.5L223.25 43.25L220.75 40L208.75 23L208 22.75L205.5 25.5L205.25 26H204.75L204.25 27L202.75 29L202.25 29.25L202 30.25V35.5L201.75 43.25L201.5 43.5H200.25L199.75 42.75V1.75L200 1.5H201.5L201.75 1.75V26.25L203 25.25L205.75 21.75L208.5 18.75L210.75 16L214 12.25L216.25 9.5L218.75 6.75L220.25 4.75H220.75L221.25 3.75L222.75 2L224 1.25Z" fill="white"/>
</svg>
